<svg aria-hidden="true" style="position: absolute; overflow: hidden;" version="1.1" xmlns="http://www.w3.org/2000/svg" xmlns:xlink="http://www.w3.org/1999/xlink">
<defs>
<symbol id="arrow" viewBox="0 0 32 32">
<path d="M14.529 25.53c0.135-0.136 0.219-0.323 0.219-0.53s-0.084-0.394-0.219-0.53v0l-7.718-7.72h20.189c0.414 0 0.75-0.336 0.75-0.75s-0.336-0.75-0.75-0.75h-20.191l7.718-7.72c0.123-0.133 0.198-0.312 0.198-0.508 0-0.414-0.336-0.75-0.75-0.75-0.196 0-0.375 0.075-0.508 0.198l0.001-0-8.998 8.998c-0.136 0.136-0.221 0.324-0.221 0.531s0.084 0.395 0.221 0.531l8.998 8.998c0.136 0.136 0.323 0.22 0.531 0.22s0.395-0.084 0.531-0.22v0z"></path>
</symbol>
<symbol id="brush" viewBox="0 0 32 32">
<path d="M28 3.5c-2.537 0-5.395 1.405-8.499 4.175-2.309 2.061-4.3 4.48-5.626 6.241-0.706-0.263-1.523-0.415-2.374-0.415-3.866 0-7 3.134-7 6.999v0c0 4.152-2.659 5.999-2.778 6.085-0.133 0.091-0.218 0.242-0.218 0.413 0 0.274 0.221 0.497 0.495 0.5h9.5c3.866-0.002 6.999-3.136 6.999-7.002 0-0.851-0.152-1.667-0.43-2.422l0.016 0.049c1.764-1.329 4.179-3.319 6.241-5.624 2.77-3.105 4.175-5.965 4.175-8.5 0 0 0 0 0 0 0-0.276-0.224-0.499-0.499-0.499-0 0-0.001 0-0.001 0h0zM11.501 26.501h-8.209c0.946-1.039 2.207-2.991 2.207-6.001 0-3.313 2.686-5.999 5.999-5.999s5.999 2.686 5.999 5.999c0 3.313-2.686 5.999-5.999 5.999v0zM14.816 14.336c0.515-0.68 1.165-1.5 1.91-2.363 1.353 0.839 2.462 1.948 3.276 3.259l0.025 0.043c-0.689 0.598-1.458 1.224-2.247 1.826l-0.116 0.085c-0.664-1.213-1.636-2.185-2.813-2.831l-0.037-0.018zM20.786 14.605c-0.882-1.375-2.016-2.509-3.346-3.366l-0.044-0.026c2.729-3.034 6.511-6.385 10.081-6.691-0.307 3.571-3.657 7.352-6.692 10.081z"></path>
</symbol>
<symbol id="circle" viewBox="0 0 32 32">
<path d="M16 3.5c-6.903 0.001-12.498 5.597-12.498 12.499s5.596 12.499 12.499 12.499c6.903 0 12.498-5.595 12.499-12.498v-0c-0.007-6.901-5.6-12.493-12.5-12.5h-0.001zM16 27.5c-6.351 0-11.5-5.149-11.5-11.5s5.149-11.5 11.5-11.5c6.351 0 11.5 5.149 11.5 11.5v0c-0.008 6.348-5.152 11.492-11.499 11.5h-0.001z"></path>
</symbol>
<symbol id="erase" viewBox="0 0 32 32">
<path d="M27.768 10.403l-5.171-5.171c-0.452-0.452-1.077-0.732-1.768-0.732s-1.315 0.28-1.768 0.732l-14.83 14.829c-0.453 0.452-0.733 1.078-0.733 1.768s0.28 1.316 0.733 1.768l3.756 3.757c0.090 0.090 0.215 0.146 0.353 0.146 0.001 0 0.001 0 0.002 0h18.657c0.276 0 0.499-0.224 0.499-0.499s-0.224-0.499-0.499-0.499h-11.793l12.561-12.562c0.453-0.452 0.733-1.078 0.733-1.768s-0.28-1.316-0.733-1.768l-0-0zM13.792 26.5h-5.242l-3.612-3.611c-0.273-0.271-0.442-0.647-0.442-1.062s0.169-0.791 0.441-1.062l7.062-7.058 7.293 7.293-5.501 5.5zM27.062 13.231l-7.062 7.062-7.293-7.293 7.060-7.059c0.271-0.273 0.647-0.442 1.062-0.442s0.791 0.169 1.062 0.441l5.171 5.171c0.271 0.271 0.438 0.646 0.438 1.059s-0.168 0.789-0.439 1.060v0z"></path>
</symbol>
<symbol id="line" viewBox="0 0 32 32">
<path d="M0.8 16c0-0.442 0.358-0.8 0.8-0.8v0h28.8c0.442 0 0.8 0.358 0.8 0.8s-0.358 0.8-0.8 0.8v0h-28.8c-0.442 0-0.8-0.358-0.8-0.8v0z"></path>
</symbol>
<symbol id="rectangle" viewBox="0 0 32 32">
<path d="M27 5.5h-22.001c-0.829 0-1.5 0.672-1.5 1.5v0 17.998c0 0.829 0.672 1.5 1.5 1.5v0h22.001c0.828 0 1.5-0.672 1.5-1.5v0-17.997c0-0.829-0.672-1.5-1.5-1.5v0zM27.5 25c-0.001 0.275-0.224 0.498-0.499 0.499h-22.001c-0.276 0-0.499-0.224-0.499-0.499v0-17.998c0-0.276 0.223-0.499 0.499-0.499v0h22.001c0.276 0 0.499 0.223 0.499 0.499v0 17.997z"></path>
</symbol>
<symbol id="reset" viewBox="0 0 32 32">
<path stroke-linejoin="round" stroke-linecap="round" stroke-miterlimit="4" stroke-width="1.28" d="M22.095 5.334c3.679 2.098 6.095 6.129 6.095 10.666 0 6.733-5.458 12.191-12.191 12.191s-12.191-5.458-12.191-12.191c0-6.733 5.458-12.191 12.191-12.191v0"></path>
<path stroke-linejoin="round" stroke-linecap="round" stroke-miterlimit="4" stroke-width="1.28" d="M22.095 11.429v-6.095h6.095"></path>
</symbol>
</defs>
</svg>
