<svg aria-hidden="true" style="position: absolute; overflow: hidden;" version="1.1" xmlns="http://www.w3.org/2000/svg" xmlns:xlink="http://www.w3.org/1999/xlink">
<defs>
<symbol id="arrow" viewBox="0 0 32 32">
<path d="M14.529 25.53c0.135-0.136 0.219-0.323 0.219-0.53s-0.084-0.394-0.219-0.53v0l-7.718-7.72h20.189c0.414 0 0.75-0.336 0.75-0.75s-0.336-0.75-0.75-0.75h-20.191l7.718-7.72c0.123-0.133 0.198-0.312 0.198-0.508 0-0.414-0.336-0.75-0.75-0.75-0.196 0-0.375 0.075-0.508 0.198l0.001-0-8.998 8.998c-0.136 0.136-0.221 0.324-0.221 0.531s0.084 0.395 0.221 0.531l8.998 8.998c0.136 0.136 0.323 0.22 0.531 0.22s0.395-0.084 0.531-0.22v0z"></path>
</symbol>
<symbol id="brush" viewBox="0 0 32 32">
<path d="M28 3.5c-2.537 0-5.395 1.405-8.499 4.175-2.309 2.061-4.3 4.48-5.626 6.241-0.706-0.263-1.523-0.415-2.374-0.415-3.866 0-7 3.134-7 6.999v0c0 4.152-2.659 5.999-2.778 6.085-0.133 0.091-0.218 0.242-0.218 0.413 0 0.274 0.221 0.497 0.495 0.5h9.5c3.866-0.002 6.999-3.136 6.999-7.002 0-0.851-0.152-1.667-0.43-2.422l0.016 0.049c1.764-1.329 4.179-3.319 6.241-5.624 2.77-3.105 4.175-5.965 4.175-8.5 0 0 0 0 0 0 0-0.276-0.224-0.499-0.499-0.499-0 0-0.001 0-0.001 0h0zM11.501 26.501h-8.209c0.946-1.039 2.207-2.991 2.207-6.001 0-3.313 2.686-5.999 5.999-5.999s5.999 2.686 5.999 5.999c0 3.313-2.686 5.999-5.999 5.999v0zM14.816 14.336c0.515-0.68 1.165-1.5 1.91-2.363 1.353 0.839 2.462 1.948 3.276 3.259l0.025 0.043c-0.689 0.598-1.458 1.224-2.247 1.826l-0.116 0.085c-0.664-1.213-1.636-2.185-2.813-2.831l-0.037-0.018zM20.786 14.605c-0.882-1.375-2.016-2.509-3.346-3.366l-0.044-0.026c2.729-3.034 6.511-6.385 10.081-6.691-0.307 3.571-3.657 7.352-6.692 10.081z"></path>
</symbol>
<symbol id="circle" viewBox="0 0 32 32">
<path d="M16 3.5c-6.903 0.001-12.498 5.597-12.498 12.499s5.596 12.499 12.499 12.499c6.903 0 12.498-5.595 12.499-12.498v-0c-0.007-6.901-5.6-12.493-12.5-12.5h-0.001zM16 27.5c-6.351 0-11.5-5.149-11.5-11.5s5.149-11.5 11.5-11.5c6.351 0 11.5 5.149 11.5 11.5v0c-0.008 6.348-5.152 11.492-11.499 11.5h-0.001z"></path>
</symbol>
<symbol id="erase" viewBox="0 0 32 32">
<path d="M27.768 10.403l-5.171-5.171c-0.452-0.452-1.077-0.732-1.768-0.732s-1.315 0.28-1.768 0.732l-14.83 14.829c-0.453 0.452-0.733 1.078-0.733 1.768s0.28 1.316 0.733 1.768l3.756 3.757c0.090 0.090 0.215 0.146 0.353 0.146 0.001 0 0.001 0 0.002 0h18.657c0.276 0 0.499-0.224 0.499-0.499s-0.224-0.499-0.499-0.499h-11.793l12.561-12.562c0.453-0.452 0.733-1.078 0.733-1.768s-0.28-1.316-0.733-1.768l-0-0zM13.792 26.5h-5.242l-3.612-3.611c-0.273-0.271-0.442-0.647-0.442-1.062s0.169-0.791 0.441-1.062l7.062-7.058 7.293 7.293-5.501 5.5zM27.062 13.231l-7.062 7.062-7.293-7.293 7.060-7.059c0.271-0.273 0.647-0.442 1.062-0.442s0.791 0.169 1.062 0.441l5.171 5.171c0.271 0.271 0.438 0.646 0.438 1.059s-0.168 0.789-0.439 1.060v0z"></path>
</symbol>
<symbol id="line" viewBox="0 0 32 32">
<path d="M0.8 16c0-0.442 0.358-0.8 0.8-0.8v0h28.8c0.442 0 0.8 0.358 0.8 0.8s-0.358 0.8-0.8 0.8v0h-28.8c-0.442 0-0.8-0.358-0.8-0.8v0z"></path>
</symbol>
<symbol id="rectangle" viewBox="0 0 32 32">
<path d="M27 5.5h-22.001c-0.829 0-1.5 0.672-1.5 1.5v0 17.998c0 0.829 0.672 1.5 1.5 1.5v0h22.001c0.828 0 1.5-0.672 1.5-1.5v0-17.997c0-0.829-0.672-1.5-1.5-1.5v0zM27.5 25c-0.001 0.275-0.224 0.498-0.499 0.499h-22.001c-0.276 0-0.499-0.224-0.499-0.499v0-17.998c0-0.276 0.223-0.499 0.499-0.499v0h22.001c0.276 0 0.499 0.223 0.499 0.499v0 17.997z"></path>
</symbol>
<symbol id="reset" viewBox="0 0 32 32">
<path stroke-linejoin="round" stroke-linecap="round" stroke-miterlimit="4" stroke-width="1.28" d="M22.095 5.334c3.679 2.098 6.095 6.129 6.095 10.666 0 6.733-5.458 12.191-12.191 12.191s-12.191-5.458-12.191-12.191c0-6.733 5.458-12.191 12.191-12.191v0"></path>
<path stroke-linejoin="round" stroke-linecap="round" stroke-miterlimit="4" stroke-width="1.28" d="M22.095 11.429v-6.095h6.095"></path>
</symbol>
<symbol id="rectangle-filled" viewBox="0 0 32 32">
<path d="M2.56 7.786v16c0.004 1.471 1.195 2.662 2.666 2.668h21.334c1.471-0.005 2.662-1.197 2.666-2.667v-16c-0.005-1.47-1.196-2.661-2.666-2.666h-21.334c-1.47 0.005-2.661 1.196-2.666 2.666v0z"></path>
</symbol>
<symbol id="circle-filled" viewBox="0 0 32 32">
<path d="M15.894 29.334c-1.844 0-3.578-0.351-5.201-1.051-1.644-0.709-3.048-1.67-4.234-2.85l0.001 0.001c-1.18-1.185-2.141-2.59-2.816-4.147l-0.034-0.087c-0.664-1.51-1.051-3.271-1.051-5.122 0-0.027 0-0.054 0-0.081l-0 0.004c0-1.844 0.351-3.578 1.050-5.201 0.71-1.644 1.672-3.048 2.852-4.233l-0 0c1.199-1.199 2.611-2.15 4.233-2.849 1.51-0.664 3.269-1.050 5.119-1.050 0.029 0 0.057 0 0.086 0l-0.004-0c1.843 0 3.578 0.349 5.199 1.050 1.623 0.7 3.034 1.651 4.234 2.849 1.199 1.201 2.15 2.611 2.851 4.234 0.7 1.622 1.050 3.355 1.050 5.199s-0.351 3.578-1.052 5.201c-0.709 1.644-1.67 3.048-2.85 4.233l0.001-0.001c-1.199 1.199-2.611 2.15-4.233 2.851s-3.355 1.050-5.199 1.050z"></path>
</symbol>
<symbol id="download" viewBox="0 0 32 32">
<path d="M25.681 29.435h-19.361c-0.060 0.004-0.131 0.006-0.201 0.006-0.907 0-1.735-0.337-2.366-0.892l0.004 0.003c-0.681-0.6-1.129-1.451-1.195-2.408l-0.001-0.011v-16.424c0.067-0.968 0.514-1.819 1.192-2.416l0.004-0.003c0.627-0.552 1.456-0.889 2.362-0.889 0.071 0 0.141 0.002 0.211 0.006l-0.010-0h0.695c0.412 0.002 0.746 0.334 0.751 0.746v0c0 0.001 0 0.002 0 0.003 0 0.411-0.333 0.744-0.744 0.744-0.003 0-0.005 0-0.008-0h-0.695c-0.058-0.006-0.126-0.009-0.194-0.009-0.495 0-0.95 0.172-1.307 0.46l0.004-0.003c-0.422 0.339-0.694 0.827-0.758 1.362v16.424c0.064 0.535 0.335 1.023 0.756 1.361 0.422 0.338 0.96 0.499 1.499 0.448h19.361c0.058 0.006 0.126 0.009 0.194 0.009 0.495 0 0.95-0.172 1.307-0.46l-0.004 0.003c0.422-0.338 0.694-0.826 0.758-1.361v-16.424c-0.068-0.553-0.347-1.031-0.753-1.358l-0.004-0.003c-0.354-0.286-0.809-0.458-1.305-0.458-0.068 0-0.136 0.003-0.203 0.010l0.008-0.001h-0.695c-0.412-0.002-0.746-0.334-0.751-0.746v-0c0-0.198 0.078-0.388 0.22-0.529 0.136-0.135 0.324-0.218 0.53-0.218 0 0 0.001 0 0.001 0h0.695c0.060-0.004 0.131-0.006 0.201-0.006 0.907 0 1.735 0.337 2.366 0.892l-0.004-0.003c0.681 0.6 1.129 1.451 1.195 2.408l0.001 0.011v16.424c-0.067 0.968-0.514 1.819-1.192 2.416l-0.004 0.003c-0.627 0.552-1.456 0.889-2.362 0.889-0.071 0-0.141-0.002-0.211-0.006l0.010 0z"></path>
<path d="M10.482 7.086l4.934-4.311c0.154-0.135 0.358-0.217 0.58-0.217 0.114 0 0.222 0.021 0.322 0.061l-0.006-0.002c0.102 0.037 0.195 0.091 0.271 0.159l4.934 4.311c0.146 0.123 0.239 0.306 0.242 0.51v0c-0.003 0.204-0.096 0.386-0.241 0.509l-0.001 0.001c-0.154 0.131-0.355 0.211-0.576 0.211-0.003 0-0.006 0-0.009-0h0c-0.002 0-0.005 0-0.008 0-0.22 0-0.421-0.080-0.577-0.212l0.001 0.001-3.52-3.075v12.17c-0.007 0.202-0.1 0.382-0.243 0.503l-0.001 0.001c-0.156 0.133-0.359 0.214-0.582 0.214-0.221 0-0.423-0.079-0.579-0.211l0.001 0.001c-0.145-0.123-0.238-0.304-0.241-0.508v-12.199l-3.538 3.101c-0.076 0.066-0.164 0.119-0.262 0.154l-0.006 0.002c-0.094 0.035-0.203 0.055-0.316 0.055s-0.222-0.020-0.323-0.057l0.006 0.002c-0.103-0.037-0.192-0.090-0.269-0.157l0.001 0.001c-0.074-0.064-0.134-0.142-0.177-0.23l-0.002-0.004c-0.039-0.081-0.062-0.176-0.062-0.276s0.023-0.195 0.064-0.28l-0.002 0.004c0.045-0.092 0.105-0.17 0.178-0.233l0.001-0.001z"></path>
</symbol>
</defs>
</svg>
