<svg xmlns="http://www.w3.org/2000/svg" width="15" height="15" fill="none"><path fill="#fff" d="M7.5 1.25A6.25 6.25 0 0 0 1.25 7.5a6.267 6.267 0 0 0 4.275 5.938c.313.05.412-.144.412-.313v-1.056c-1.73.375-2.1-.838-2.1-.838-.287-.725-.693-.918-.693-.918-.569-.388.043-.376.043-.376.626.044.957.644.957.644.543.95 1.462.669 1.819.519.056-.406.218-.681.393-.838-1.387-.156-2.843-.693-2.843-3.075 0-.693.237-1.25.643-1.693-.062-.156-.281-.806.063-1.65 0 0 .525-.169 1.718.637A5.889 5.889 0 0 1 7.5 4.275c.531 0 1.069.069 1.563.206 1.193-.806 1.718-.637 1.718-.637.344.844.125 1.494.063 1.65.406.444.644 1 .644 1.694 0 2.387-1.463 2.912-2.857 3.068.225.194.431.575.431 1.156v1.713c0 .169.1.369.42.313a6.268 6.268 0 0 0 3.792-8.33A6.248 6.248 0 0 0 7.5 1.25Z"/></svg>